#!OML:ASF F:\VICON\USERDATA\INSTALL\rory3\rory3.ASF
:FULLY-SPECIFIED
:DEGREES
112
root -0.294568 18.2907 29.0829 4.34124 -2.62617 -0.289241
lowerback 15.2559 -3.9782 -3.81597
upperback 0.625061 -5.94346 -0.202592
thorax -7.50002 -2.75045 3.18511
lowerneck -5.56527 4.10386 -2.3674
upperneck -6.95963 5.52551 -0.952733
head -1.26308 2.82126 0.119869
rclavicle 3.05134e-014 -1.43125e-014
rhumerus -63.7984 7.87406 -88.9118
rradius 92.7377
rwrist -7.74101
rhand -34.1704 32.1179
rfingers 7.12502
rthumb -7.34402 2.26532
lclavicle 3.05134e-014 -1.43125e-014
lhumerus -15.3111 -11.2551 83.1079
lradius 121.205
lwrist 29.3729
lhand -37.4047 5.46023
lfingers 7.12502
lthumb -10.465 35.1798
rfemur -43.9117 3.58082 21.4948
rtibia 71.1831
rfoot 7.73 2.50861
rtoes 3.14563
lfemur 22.3385 -3.3954 -26.5643
ltibia 11.3872
lfoot 24.1662 4.38263
ltoes -10.7635
113
root -0.285596 18.3581 29.6578 4.5081 -2.81321 -0.351083
lowerback 14.8185 -4.06213 -3.87151
upperback 0.53538 -6.03756 -0.0541662
thorax -7.32354 -2.79852 3.35722
lowerneck -6.09647 4.13961 -2.18718
upperneck -6.31026 5.58221 -1.04897
head -0.96529 2.83795 0.0830109
rclavicle -2.46493e-014 -6.36111e-015
rhumerus -64.6173 7.81105 -88.5724
rradius 92.9966
rwrist -8.05833
rhand -34.5375 31.5934
rfingers 7.12502
rthumb -7.69837 1.75349
lclavicle -2.46493e-014 -6.36111e-015
lhumerus -15.8168 -11.7623 83.386
lradius 121.269
lwrist 28.8247
lhand -37.4248 5.30245
lfingers 7.12502
lthumb -10.4845 35.021
rfemur -43.6555 4.11498 21.5054
rtibia 66.3165
rfoot 6.58373 2.80059
rtoes 1.76041
lfemur 25.528 -3.67976 -26.6502
ltibia 6.894
lfoot 30.5543 6.33335
ltoes -4.84616
114
root -0.274225 18.42 30.2259 4.745 -3.12384 -0.407541
lowerback 14.4678 -4.02998 -3.75475
upperback 0.301643 -5.96244 0.0398655
thorax -7.38678 -2.76051 3.35953
lowerneck -6.26094 4.17066 -2.08212
upperneck -5.78564 5.62493 -1.18138
head -0.769903 2.85181 0.0378308
rclavicle -2.16675e-014 -7.95139e-015
rhumerus -65.6627 7.56372 -88.1873
rradius 93.2749
rwrist -8.27168
rhand -35.2775 31.5166
rfingers 7.12502
rthumb -8.41263 1.70417
lclavicle -2.16675e-014 -7.95139e-015
lhumerus -16.5446 -12.5491 83.7758
lradius 121.305
lwrist 28.1784
lhand -37.2333 4.91206
lfingers 7.12502
lthumb -10.2998 34.6399
rfemur -43.334 4.85448 21.417
rtibia 61.3237
rfoot 5.60987 2.77706
rtoes 0.662086
lfemur 29.8531 -3.87534 -26.6717
ltibia -2.22639e-014
lfoot 37.0478 7.51323
ltoes -4.9129
115
root -0.264924 18.4675 30.79 5.04406 -3.50661 -0.208945
lowerback 14.0343 -4.01997 -4.02595
upperback -0.106361 -5.97913 0.18443
thorax -7.53903 -2.74663 3.64976
lowerneck -5.55703 4.20412 -2.28748
upperneck -5.76445 5.66119 -1.21909
head -0.881959 2.8761 0.0436473
rclavicle -3.83654e-014 -7.15625e-015
rhumerus -66.817 7.68207 -87.7768
rradius 93.4888
rwrist -8.5912
rhand -35.3612 32.1244
rfingers 7.12502
rthumb -8.4934 2.31518
lclavicle -3.83654e-014 -7.15625e-015
lhumerus -17.7547 -13.1139 84.3819
lradius 121.373
lwrist 27.4
lhand -37.3543 4.55533
lfingers 7.12502
lthumb -10.4164 34.2773
rfemur -43.0086 5.56561 21.023
rtibia 56.2739
rfoot 4.85715 2.77232
rtoes -1.23957
lfemur 30.6966 -3.95576 -27.1482
ltibia 9.54166e-015
lfoot 38.2676 7.47589
ltoes -6.30558
116
root -0.2301 18.5161 31.3493 5.1346 -3.3823 0.279946
lowerback 14.0077 -4.34009 -4.27065
upperback -0.479604 -6.44421 0.340657
thorax -7.84337 -2.94257 4.05631
lowerneck -4.7859 4.38643 -2.94028
upperneck -6.08693 5.90955 -1.01976
head -1.13759 3.01778 0.186911
rclavicle 4.9895e-014 9.14409e-015
rhumerus -67.6576 8.40685 -87.3714
rradius 93.6199
rwrist -8.91287
rhand -35.6934 32.3818
rfingers 7.12502
rthumb -8.81394 2.58585
lclavicle 4.9895e-014 9.14409e-015
lhumerus -19.0335 -13.0408 85.1183
lradius 121.434
lwrist 26.6241
lhand -37.1144 4.31319
lfingers 7.12502
lthumb -10.185 34.0466
rfemur -42.256 5.41759 20.3076
rtibia 51.163
rfoot 4.38071 2.90124
rtoes -4.12907
lfemur 31.776 -4.46869 -28.0582
ltibia 7.63333e-014
lfoot 38.7541 7.48424
ltoes -3.7646
117
root -0.203671 18.5586 31.9051 5.10741 -3.33184 0.632099
lowerback 14.1935 -4.61787 -4.39543
upperback -0.574947 -6.84216 0.385652
thorax -7.99502 -3.1209 4.27148
lowerneck -5.22427 4.61302 -3.28896
upperneck -5.95011 6.25164 -0.751449
head -1.04819 3.19056 0.338224
rclavicle -4.58199e-014 4.77083e-015
rhumerus -67.8599 8.84606 -87.2653
rradius 93.6716
rwrist -8.9705
rhand -36.5882 31.7807
rfingers 7.12502
rthumb -9.67735 2.02303
lclavicle -4.58199e-014 4.77083e-015
lhumerus -19.7933 -12.5983 85.42
lradius 120.927
lwrist 24.5436
lhand -35.1215 1.87153
lfingers 7.12502
lthumb -8.26201 31.69
rfemur -41.2248 5.64306 19.7027
rtibia 45.9955
rfoot 4.70171 2.33373
rtoes -6.03728
lfemur 32.96 -4.87967 -28.8298
ltibia -6.36111e-015
lfoot 38.903 6.97455
ltoes -0.509525
118
root -0.177614 18.581 32.4532 5.24912 -3.6556 0.733496
lowerback 14.1318 -4.59144 -4.12404
upperback -0.567796 -6.76995 0.248831
thorax -8.00743 -3.09973 3.9571
lowerneck -5.95614 4.60404 -3.17941
upperneck -5.88382 6.26949 -0.489678
head -0.913894 3.19322 0.419832
rclavicle -1.77912e-014 -1.19271e-015
rhumerus -67.89 8.45989 -87.2472
rradius 93.7949
rwrist -9.08799
rhand -36.8673 31.7513
rfingers 7.12502
rthumb -9.94666 2.0063
lclavicle -1.77912e-014 -1.19271e-015
lhumerus -20.536 -13.8351 85.7958
lradius 121.193
lwrist 24.7621
lhand -36.5821 4.15235
lfingers 7.12502
lthumb -9.67148 33.9103
rfemur -40.3542 6.23623 19.3134
rtibia 40.919
rfoot 5.48848 1.20701
rtoes -6.10529
lfemur 33.9702 -4.91286 -29.3779
ltibia -6.04305e-014
lfoot 38.9052 5.69508
ltoes -0.424158
119
root -0.157702 18.5788 32.9867 5.90013 -4.84208 0.875348
lowerback 13.7042 -4.13703 -4.26984
upperback -1.00423 -6.18709 0.263606
thorax -8.27358 -2.79536 3.92972
lowerneck -5.49054 4.54185 -3.13804
upperneck -6.20475 6.1638 -0.522882
head -1.08566 3.14407 0.386373
rclavicle 4.30369e-014 -2.0276e-014
rhumerus -68.4608 8.10423 -86.9071
rradius 94.0414
rwrist -9.41523
rhand -36.5117 32.6935
rfingers 7.12502
rthumb -9.60351 2.93235
lclavicle 4.30369e-014 -2.0276e-014
lhumerus -22.0233 -15.7851 86.8649
lradius 121.745
lwrist 26.7744
lhand -37.4272 5.48124
lfingers 7.12502
lthumb -10.4867 35.1997
rfemur -40.2038 7.45515 18.8155
rtibia 36.0044
rfoot 6.56732 -0.281689
rtoes -6.02955
lfemur 31.6902 -4.16794 -30.1559
ltibia 5.27014
lfoot 36.4477 4.12529
ltoes -1.84679
120
root -0.122277 18.5817 33.5252 5.95885 -4.84683 1.30771
lowerback 13.2651 -4.12139 -4.26698
upperback -0.752576 -6.14341 0.169932
thorax -7.76624 -2.80184 3.76421
lowerneck -5.5763 4.49835 -3.12296
upperneck -6.73427 6.08604 -0.877741
head -1.22358 3.11328 0.269673
rclavicle 5.72997e-014 7.95139e-016
rhumerus -67.9153 7.83633 -86.5389
rradius 94.0253
rwrist -9.6061
rhand -36.4215 33.2928
rfingers 7.12502
rthumb -9.5165 3.52768
lclavicle 5.72997e-014 7.95139e-016
lhumerus -22.3503 -16.7572 87.3684
lradius 121.486
lwrist 27.2748
lhand -37.9205 6.18661
lfingers 7.12502
lthumb -10.9626 35.8804
rfemur -39.1048 7.51806 18.1737
rtibia 31.5171
rfoot 6.60015 -1.87593
rtoes -6.71394
lfemur 29.4209 -4.53216 -31.2211
ltibia 11.8447
lfoot 33.9718 3.0347
ltoes -4.20882
